<svg width="26" height="25" viewBox="0 0 26 25" fill="none" xmlns="http://www.w3.org/2000/svg">
<path d="M17.3271 12.5C17.3271 13.2911 17.0926 14.0645 16.653 14.7223C16.2135 15.3801 15.5888 15.8928 14.8579 16.1955C14.127 16.4983 13.3227 16.5775 12.5468 16.4231C11.7709 16.2688 11.0581 15.8878 10.4987 15.3284C9.93931 14.769 9.55835 14.0563 9.40401 13.2804C9.24967 12.5044 9.32888 11.7002 9.63163 10.9693C9.93438 10.2384 10.4471 9.61365 11.1049 9.17412C11.7627 8.7346 12.536 8.5 13.3271 8.5C14.387 8.5033 15.4025 8.92578 16.1519 9.67521C16.9014 10.4246 17.3239 11.4401 17.3271 12.5ZM25.8271 7V18C25.8271 19.8565 25.0896 21.637 23.7769 22.9497C22.4641 24.2625 20.6837 25 18.8271 25H7.82715C5.97063 25 4.19016 24.2625 2.8774 22.9497C1.56465 21.637 0.827148 19.8565 0.827148 18V7C0.827148 5.14348 1.56465 3.36301 2.8774 2.05025C4.19016 0.737498 5.97063 0 7.82715 0H18.8271C20.6837 0 22.4641 0.737498 23.7769 2.05025C25.0896 3.36301 25.8271 5.14348 25.8271 7ZM19.3271 12.5C19.3271 11.3133 18.9753 10.1533 18.316 9.16658C17.6567 8.17988 16.7196 7.41085 15.6232 6.95672C14.5269 6.5026 13.3205 6.38378 12.1566 6.61529C10.9927 6.8468 9.92362 7.41824 9.08451 8.25736C8.24539 9.09647 7.67395 10.1656 7.44244 11.3295C7.21093 12.4933 7.32975 13.6997 7.78387 14.7961C8.238 15.8925 9.00703 16.8295 9.99373 17.4888C10.9804 18.1481 12.1405 18.5 13.3271 18.5C14.9184 18.5 16.4446 17.8679 17.5698 16.7426C18.695 15.6174 19.3271 14.0913 19.3271 12.5ZM21.3271 6C21.3271 5.70333 21.2392 5.41332 21.0744 5.16665C20.9095 4.91997 20.6753 4.72771 20.4012 4.61418C20.1271 4.50065 19.8255 4.47094 19.5345 4.52882C19.2435 4.5867 18.9763 4.72956 18.7665 4.93934C18.5567 5.14912 18.4138 5.41639 18.356 5.70736C18.2981 5.99834 18.3278 6.29994 18.4413 6.57403C18.5549 6.84811 18.7471 7.08238 18.9938 7.2472C19.2405 7.41203 19.5305 7.5 19.8271 7.5C20.225 7.5 20.6065 7.34196 20.8878 7.06066C21.1691 6.77936 21.3271 6.39782 21.3271 6Z" fill="white"/>
</svg>
