<svg width="17" height="10" viewBox="0 0 17 10" fill="none" xmlns="http://www.w3.org/2000/svg">
<path d="M1.24869 0.654666C1.51423 0.38912 1.8522 0.256348 2.26259 0.256348C2.67297 0.256348 3.01094 0.38912 3.27649 0.654666L8.92537 6.30355L14.5742 0.654666C14.8398 0.38912 15.1778 0.256348 15.5881 0.256348C15.9985 0.256348 16.3365 0.38912 16.602 0.654666C16.8676 0.920211 17.0004 1.25818 17.0004 1.66857C17.0004 2.07896 16.8676 2.41692 16.602 2.68247L9.93927 9.34525C9.79443 9.49009 9.63751 9.59293 9.46853 9.65377C9.29954 9.71363 9.11849 9.74357 8.92537 9.74357C8.73224 9.74357 8.55119 9.71363 8.38221 9.65377C8.21322 9.59293 8.05631 9.49009 7.91147 9.34525L1.24869 2.68247C0.983141 2.41692 0.850367 2.07896 0.850367 1.66857C0.850367 1.25818 0.983141 0.920211 1.24869 0.654666Z" fill="#262626"/>
</svg>
