<svg width="17" height="10" viewBox="0 0 17 10" fill="none" xmlns="http://www.w3.org/2000/svg">
<path d="M16.6013 9.34533C16.3357 9.61088 15.9978 9.74365 15.5874 9.74365C15.177 9.74365 14.839 9.61088 14.5735 9.34533L8.92461 3.69645L3.27573 9.34533C3.01019 9.61088 2.67222 9.74365 2.26183 9.74365C1.85144 9.74365 1.51347 9.61088 1.24793 9.34533C0.982382 9.07979 0.849609 8.74182 0.849609 8.33143C0.849609 7.92104 0.982382 7.58308 1.24793 7.31753L7.91071 0.65475C8.05555 0.509907 8.21246 0.407067 8.38145 0.346233C8.55043 0.286366 8.73148 0.256431 8.92461 0.256431C9.11773 0.256431 9.29879 0.286366 9.46777 0.346233C9.63675 0.407067 9.79367 0.509907 9.93851 0.65475L16.6013 7.31753C16.8668 7.58308 16.9996 7.92104 16.9996 8.33143C16.9996 8.74182 16.8668 9.07979 16.6013 9.34533Z" fill="#262626"/>
</svg>
