<svg width="31" height="25" viewBox="0 0 31 25" fill="none" xmlns="http://www.w3.org/2000/svg">
<path d="M30.8272 2.94118C29.6948 3.45588 28.4743 3.79412 27.2096 3.95588C28.5037 3.17647 29.5037 1.94118 29.9743 0.455882C28.7537 1.19118 27.4007 1.70588 25.9743 2C24.8125 0.735294 23.1801 0 21.3272 0C17.8713 0 15.0478 2.82353 15.0478 6.30882C15.0478 6.80882 15.1066 7.29412 15.2096 7.75C9.97427 7.48529 5.3125 4.97059 2.20956 1.16176C1.66544 2.08824 1.35662 3.17647 1.35662 4.32353C1.35662 6.51471 2.45956 8.45588 4.16544 9.55882C3.12132 9.55882 2.15074 9.26471 1.29779 8.82353V8.86765C1.29779 11.9265 3.47426 14.4853 6.35662 15.0588C5.43122 15.3121 4.4597 15.3473 3.51838 15.1618C3.9178 16.4154 4.70005 17.5124 5.75517 18.2984C6.81029 19.0845 8.08522 19.5201 9.40073 19.5441C7.17078 21.3095 4.40661 22.2637 1.5625 22.25C1.0625 22.25 0.5625 22.2206 0.0625 22.1618C2.85662 23.9559 6.18015 25 9.73897 25C21.3272 25 27.6949 15.3824 27.6949 7.04412C27.6949 6.76471 27.6949 6.5 27.6801 6.22059C28.9154 5.33823 29.9743 4.22059 30.8272 2.94118Z" fill="#262626"/>
</svg>
