<?xml version="1.0" encoding="UTF-8"?><svg id="Calque_1" xmlns="http://www.w3.org/2000/svg" viewBox="0 0 758.04 505.8"><defs><style>.cls-1{fill:#fff;}</style></defs><path class="cls-1" d="M734.28,409.52c4.02,4.86,5.25,5.75,8.43,14.27,.71,1.9,3.73,15.05,4.57,16.73,1.74,3.48,11,27,9,27-10,0-23.36-4.35-28-2-10.69,5.42-19,1-24,5-11.51,9.21-16.35,16.13-19,16-4.29-.2-19-8-19-8-6.11-4.69-6.53-12.34-15-19-14-11-9-5-25-16-11.64-8-23.9-10.01-29-18-6.21-9.73-10.71-12.62-13-21-3.72-13.63-.07-21.32-2-32-.62-3.43,1.94-11.97,0-28-.64-5.26,.75-19.26,0-25-.91-6.98-.94-9.01-2-16-1.59-10.46-9.32-14.54-11.17-22.84-1.85-8.3-3.8-14.82-5.83-18.16-1.22,2.18-1.53,11.32-2,23-.27,6.76-.91,14.33-1,22-.08,6.73,.03,11.75,0,18-.06,13.95-.26,18.1-1,21-2.25,8.78-5.05,9.22-10,16-4.3,5.9-13.11,23.03-16,30-9.15,22.07-11.92,94.43-40.57,89.54-14.72-2.51-44.18-14.16-47.33-31.31-.63-3.4,.55-5.98-.41-9.52-1.11-4.12-4.05-9.25-5.52-13.24-7.24-19.7-19.74-38.99-31.72-56.05-6.17-8.79-9.95-18.37-17.16-26.58-6.66-7.59-9.29-12.82-14.29-21.61-9.48-16.67-35-31.22-40-37.22-5.57-6.68,.7-16.83-3.92-23.97-6.22-9.63-26-12.94-35.84-12.83-8.36,.1-4.5,.87-12.21-3.01-8.73-4.4-12.08-11-16.9,.25-5.11,11.93-.17,25.08-2.96,37.32-2,8.79-2.5,16.2-2.48,25.45,.02,9.63,.59,19.46,.11,29.07-.49,9.92-5.77,18.37-6.65,28.28-.84,9.54-.14,19.93,.08,29.5,.18,7.92-6.69,14.43-7.43,22.26-1.21,12.65-8.57,10.98-15.77,19.08-5.98,6.73-3.67,16.14-3.67,25.05,0,9.18-1.9,19.96-2.74,29.58-.61,6.97-20.61,7.97-32.48,11.03-11.73,3.02-18.61-2.76-24.78-13.77-4.5-8.04-8.51-16.64-13.24-24.69-7.44-12.68-16.46-21.84-21.87-36.05-2.78-7.32-4.97-14.88-7.81-22.19-3.09-7.93-4.29-14.66-6.15-22.76-5.01-21.85-14.97-43.28-21.54-64.72-4.78-15.61-11.79-34.07-13.12-50.41-.77-9.48,2-19.73-.53-28.99-1.51-5.53-5.44-16.35-12.05-15.69-4.33,.43-16.73,16.23-18.65,19.83-5.12,9.61-7.6,16.61-16.4,24.39-5.2,4.6-6.93,11.79-10,11s-9.33-13.6-11-19c-1.92-6.23-10.09-19.19-13-25-1-2-2-17-2-17,1-5-.8-22.97,3-24,4.4-1.2,19.57,7.12,24,6,7.53-1.9,17.34,5.37,23,0,5.23-4.96,15.76-10.93,18.67-17.65,2.85-6.6-.94-20.84,3.34-25.51,4.82-1,9.59,3.12,13.53,6.42,3.43,2.87,6.35,5.58,7.92,9,3.54,7.75,2.55,15.95,.57,25.73-2.28,11.28-.73,23.24,1.62,34.33,3.4,16.03,6.11,32.12,9.66,48.12,5.32,23.94,11.14,46.06,23.23,67.71,9.06,16.23,15.07,32.51,21.51,49.83,5.14,13.82,16.88,35.1,34.22,33.28,7.82-.82,15.01-6.42,19.42-12.82,2.83-4.1,13.5-8.25,15.28-12.18,3.08-6.77,7.41-7.43,13.08-12.92,12.31-11.91,14.71-34.73,14.58-51.03-.12-15.07-7.7-28.86-3.65-43.76,3.42-12.58,9.18-25.8,7.57-39.13-.62-5.15-2.51-10.05-2.81-15.3-.26-4.53,.93-9.54,.34-14.05-.5-3.86-2.4-7.24-3.05-11.06-.78-4.57,.09-9.17-.93-13.76-1.66-7.47-7.86-15.49-7.2-23.35,3.9-3.84,7.54-3.16,10.88-1.52,8.08,3.96,14.41,18.39,18.41,23.34,4.66,5.77,7.53,10.31,13.81,13.29,5.46,2.59,6.03,7.11,12,9,8.81,2.79,15.48,1.3,23-2,9.88-4.33,22.15-1.99,32-1,6.72,.68,16.29,2.1,22,4,3,1,9.78,7.46,14.94,18.77,4.1,8.99,5.87,19.61,9.26,28.95,3.49,9.63,9.28,18.71,12.13,28.48,2.53,8.67,3.68,17.18,6.85,25.76,3.96,10.69,11.38,19.12,15.63,29.43,5.92,14.36,4.52,30.49,13.16,43.9,2.55,2.68,4.8,5.61,6.72,8.78,1.8,3.08,3.01,6.37,3.65,9.87,4.13,6.43,6.4,5.97,13.58,7.39,8.37,1.66,12.58,3.65,20.96-.15,9.16-4.15,14.84-7.21,18.99-16.5,6.21-13.89,8.94-25.65,18.78-37.38,6.5-7.74,15.48-17.11,18.94-26.74,6.63-18.45,6.94-39.98,7.09-59.35,.08-10.14-3.83-26.29-4.42-36.3-.73-12.35,3.16-26.08,3.16-38.46,0-19.79-2.97-42.22,3.04-61.38,2.81-8.95,3.62-9.51,5.47-18.7,2.02-10.02,5.78-20.11,7.8-29.95,2.73-7.59,3.03-15.2,4.24-20.42,1-8.02-.05-13.98,1-22,1.57-8.75,.63-16.23,1.89-24.89,.96-6.64,2.61-13.38,4.07-19.94,.9-4.04,1.22-11.77,3.03-15.2,4.64,5.3,4.7,14.49,5.7,21.26,2.35,16.06,3.45,32.27,3.33,48.51-.19,25.51,9.52,35.33,3.99,60.25-1.43,6.45-3.7,15.01-6.04,23.68-2.58,9.55-6.24,15.22-7.96,22.32-3.07,12.7-4.73,35.92-5,49-.64,31.14,13.53,57.54,16,70,2.85,14.33,3.84,37.48,5,52,1.68,21.05,4.25,29.78,11,50,3.01,9.03,8.37,17.22,15,24,7.28,7.46,13.25,11.55,22,17,8.44,5.25,12.35,13.95,22.53,14.87,2.34,.21,11.34,1.83,13.47,1.13,8.88-2.93,7.79-18.37,14-24,4.65-4.22,5.81-11.57,5.64-15.64-.31-7.2-.64-15.36,.36-16.36,3.08-3.08,9.4-2.85,24,3,1.74,.7,9.66,5.38,11,7Z"/><path class="cls-1" d="M733.22,410.58c4.14,4.98,7.13,9.95,8.81,16.29,1.28,4.85,2.11,10,4.07,14.63,1.83,4.34,3.61,8.68,5.23,13.1,.94,2.55,1.85,5.11,2.64,7.71,.3,.98,.62,1.98,.83,2.98,.07,.33,.23,.71,.22,1.05,.03,.18,.04,.35,.05,.53,.44-.94,.12-1.25-.97-.93-1.66-.66-4.71-.43-6.52-.69-2.3-.33-4.6-.72-6.9-1.07-3.35-.51-6.87-1.19-10.26-.76s-6.56,2.53-10.09,3.14c-4,.7-8.09,.15-12.09,.79-3.47,.55-5.65,2.55-8.28,4.78-3.31,2.81-6.43,5.81-9.57,8.81-1.25,1.2-3.06,3.63-4.82,4-2.01,.42-5.05-1.34-6.87-2.11-4.07-1.73-9.62-3.51-12.84-6.68-2.69-2.65-4.23-6.22-6.22-9.37-2.37-3.77-5.31-6.8-8.83-9.53-3.82-2.96-7.63-5.56-11.93-7.74-6.96-3.54-13.04-8.52-20-12.08-7.69-3.93-16.05-6.51-21.11-13.92s-10.82-13.31-12.72-22.15-.06-17.03-.84-25.64c-.46-5.05-.06-9.61,.19-14.69,.43-8.79-.97-17.47-.68-26.27s-.07-16.29-1.05-24.63c-.5-4.26-.88-8.63-2.54-12.62-1.54-3.69-3.99-6.78-6.2-10.07-5.16-7.72-4.74-17.64-9.37-25.7-.53-.92-2.09-1.03-2.59,0-1.6,3.34-1.45,7.77-1.65,11.36-.41,7.22-.63,14.45-1.04,21.68-.79,14.1-.27,28.2-.64,42.3-.08,2.89-.09,5.87-.73,8.7-1.2,5.32-4.01,8.7-7.39,12.73-6.37,7.59-10.79,16.96-15.11,25.8-6.77,13.86-9.07,28.78-12.17,43.77-1.82,8.79-3.76,17.59-6.48,26.16-2.27,7.16-5.04,14.8-10.01,20.59-4.36,5.08-9.54,6.68-16.02,5.31-9.71-2.06-19.3-5.84-27.76-11.02-4.62-2.83-9.12-6.22-12.39-10.6-1.27-1.7-2.36-3.58-3.06-5.59-1.09-3.13-.51-6.02-.67-9.22-.31-6.21-4.47-12.34-6.66-18.02-2.59-6.73-5.68-13.25-9.09-19.6-7.18-13.39-16.17-25.46-24.28-38.25-3.75-5.91-6.83-12.22-10.83-17.97-3.86-5.54-8.58-10.35-12.17-16.1-3.22-5.17-5.79-10.78-9.46-15.65-3.33-4.42-7.27-8.34-11.41-12.01-7.37-6.53-15.67-11.87-23.12-18.28-4.36-3.75-4.68-8.17-4.32-13.68,.34-5.02,.35-9.89-3.01-13.96-6.17-7.48-17.56-10.1-26.7-11.34-4.41-.6-8.72-.65-13.16-.56-3.85,.08-7.74-2.83-10.9-4.8-2.61-1.63-5.78-4.58-9.11-4.25-3.82,.38-5.71,4.85-6.92,7.92-2.55,6.46-2.37,13.46-2.07,20.28,.15,3.47,.33,6.94,.15,10.42-.21,3.88-1.22,7.59-1.87,11.4-2.53,14.96-.88,30.11-1.2,45.18-.16,7.73-2.16,14.37-4.43,21.68-2.12,6.83-2.74,13.57-2.77,20.7-.02,3.79,.1,7.58,.22,11.38s.74,8.04-.13,11.82c-1.4,6.09-5.75,11.09-6.84,17.3-1.01,5.72-1.9,9.38-6.92,12.72-3.94,2.63-8.03,5.22-10.51,9.4-2.94,4.97-2.79,10.93-2.5,16.5,.36,7.06,.1,13.92-.69,20.95-.39,3.44-.83,6.86-1.22,10.3-.33,2.9,.13,5.91-2.48,7.72-3.67,2.54-8.98,3.23-13.25,4.05-5.26,1.01-10.56,1.81-15.77,3.05-5.98,1.43-11.55,.94-16.28-3.29s-7.85-10.7-10.85-16.43c-3.54-6.77-6.92-13.65-10.94-20.16-7.29-11.81-16.28-22.23-21.11-35.43-5.11-13.96-9.78-27.85-13.08-42.34s-8.98-29.48-14.3-43.94-9.73-28.25-14.09-42.52c-2.13-6.98-4.1-14.04-5.36-21.23s-1.04-14.71-.62-22.29c.52-9.48-.68-22.84-8.66-29.53-6.61-5.54-12.62,1.98-16.82,6.75-2.76,3.13-5.43,6.41-7.77,9.87-2.83,4.19-4.69,9-7.19,13.38-1.46,2.55-3.07,5.02-4.95,7.27-2.32,2.78-5.23,4.98-7.53,7.77-1.48,1.8-2.63,3.81-3.94,5.72-.52,.76-1.29,2.29-2.28,2.3-.8,.01-1.79-1.63-2.19-2.18-5.62-7.67-7.81-17.17-12.27-25.46-2.53-4.71-5.3-9.29-7.82-14-1.74-3.25-1.72-7.22-2.05-10.83-.62-6.82-.31-13.58-.1-20.44,.06-2.15,.11-4.36,.54-6.47,.39-1.92,.53-2.8,2.59-2.58,4.36,.45,8.74,2.73,12.83,4.16s6.87,1.95,10.93,1.59c5.29-.47,10.29,2.36,15.56,2.31s8.66-4.28,12.57-7.29c4.15-3.18,8.63-6.37,11.63-10.74,2.68-3.91,2.76-8.55,2.74-13.14-.01-2.61-.13-5.23,0-7.83s.04-6.86,3.58-6.19,6.82,3.68,9.55,5.98,5.46,4.6,7.17,7.69c3.83,6.9,2.83,15.42,1.46,22.83s-2.02,13.88-1.47,21.08,2.13,14.64,3.61,21.9c3.24,15.88,6.04,31.85,9.65,47.65,3.18,13.95,6.8,27.85,11.97,41.22,5.33,13.78,13.09,26.3,19.1,39.76,5.66,12.69,9.64,26.09,15.43,38.7,4.09,8.92,9.72,18.08,18.03,23.63,9,6.01,19.7,4.85,28.11-1.69,4.5-3.5,7.21-8.5,11.98-11.64,3.46-2.28,8.12-4.31,10.45-7.92,1.56-2.42,2.63-4.67,4.9-6.58s4.66-3.38,6.84-5.28c4.15-3.63,7.27-8.22,9.56-13.23,4.72-10.34,6.31-21.97,6.75-33.24,.23-5.98,0-11.85-1.02-17.75-1.31-7.49-3.5-14.89-3.7-22.54s2.51-14.67,4.69-21.85,4.06-14.12,4.3-21.45-2.62-14.18-3.06-21.49c-.21-3.43,.41-6.84,.49-10.27s-.59-6.49-1.68-9.72c-1.19-3.55-1.84-6.84-1.89-10.62s-.09-7.25-1.2-10.81c-.81-2.57-1.97-5.04-3.05-7.5-1.38-3.11-3.78-7.5-3.52-11.05,.34-4.68,6.41-3.8,9.36-2.09,2.52,1.46,4.53,3.68,6.32,5.95,3.37,4.27,5.92,9.07,8.85,13.63s6.22,8.82,10.02,12.34c1.92,1.78,4.01,3.07,6.3,4.32,2.93,1.6,4.7,4.01,7.15,6.17,4.15,3.65,10.44,4.75,15.82,4.47,6.66-.34,12.14-3.8,18.51-5.17,7.08-1.52,14.47-.6,21.58,.21,6.61,.76,13.22,1.42,19.74,2.78,4.93,1.03,8.22,2.09,11.67,5.82,4.53,4.89,7.92,11,10.29,17.19,2.61,6.84,4.16,14.03,6.32,21.01s5.16,13.1,8.19,19.5c3.41,7.2,5.83,14.41,7.63,22.17,1.64,7.09,3.22,14.22,6.26,20.88,2.84,6.23,6.76,11.87,10.14,17.81,3.74,6.57,6.1,13.41,7.63,20.8,1.34,6.46,2.26,13.04,4.22,19.36,.9,2.89,2,5.73,3.39,8.42,1.67,3.24,4.11,5.58,6.24,8.51s4.05,6.26,5.12,9.88c.84,2.84,1.41,4.76,3.47,6.98,2.7,2.93,6.15,3.6,9.92,4.3,5.51,1.02,11.15,3,16.81,2.29s11.02-3.58,15.65-6.43c10.21-6.27,13.26-17.79,17.53-28.29,2.6-6.4,5.55-12.66,9.62-18.28s9.25-10.84,13.58-16.49c8.27-10.77,11.69-23.06,13.51-36.39,1.86-13.62,2.81-28.19,1.81-41.92-.87-11.99-4.47-23.8-4.34-35.86,.08-7.41,1.38-14.74,2.3-22.08,.9-7.19,1.01-14.27,.8-21.51-.45-14.79-1.62-29.87,1.26-44.5,1.13-5.75,3.18-11.19,4.98-16.75,2.02-6.21,2.98-12.72,4.72-19.02,3.76-13.62,7.55-27.01,9.73-40.99,1-6.43,.16-12.99,.74-19.45,.65-7.35,1.14-14.64,1.61-22.01,.52-8.05,2.53-15.9,4.26-23.76,1.16-5.26,.9-11.32,3.19-16.25l-2.36,.3c3.61,4.47,4.12,10.62,4.75,16.11,.72,6.25,1.68,12.46,2.3,18.73,1.31,13.29,.95,26.53,1.67,39.83,.52,9.56,2.94,18.73,4.52,28.13,1.9,11.27,.44,21.84-2.3,32.84-1.6,6.42-3.16,12.91-5.12,19.23-1.52,4.9-3.7,9.52-5.5,14.32-3.3,8.79-4.16,18.55-5.08,27.83-.98,9.83-1.76,19.79-1.69,29.68,.08,11.39,2.07,22.69,5.12,33.64,2.51,9,5.86,17.7,8.82,26.55,2.74,8.19,3.71,16.69,4.54,25.26,1.99,20.66,1.72,41.8,6.8,62.03,2.57,10.23,5.5,21.13,10.32,30.53,5.13,10,13,18.4,21.86,25.22,4.24,3.26,8.83,5.92,13.23,8.92,4,2.73,7.14,6.45,10.88,9.49,6.1,4.95,14.08,5.77,21.7,6.23,7.12,.43,10.37-5.36,12.43-11.38,1.28-3.74,2.09-7.91,4.3-11.26,1.01-1.53,2.47-2.66,3.56-4.14,1.39-1.89,2.38-4.06,3.05-6.31,1.25-4.19,1.04-8.34,.88-12.65-.1-2.82-1.54-10.01,1.31-11.67,2.63-1.53,6.77-.44,9.47,.23,4.49,1.11,9.24,2.58,13.31,4.77,2.97,1.6,6.56,3.38,8.9,5.86,1.33,1.41,3.45-.72,2.12-2.12-5-5.3-13.37-8.34-20.11-10.44-4.6-1.43-12.39-3.88-16.56,.03-2.11,1.98-1.59,5.83-1.56,8.45,.04,4.91,.83,9.99-.17,14.84-.52,2.5-1.43,4.99-2.91,7.08-1.16,1.64-2.77,2.85-3.87,4.55-2,3.12-2.94,6.85-4.06,10.34s-2.53,8.44-6.19,10.31c-3.04,1.56-7.92,.1-11.1-.34-4.53-.63-8.43-1.43-12.14-4.32s-6.68-6.41-10.41-9.19c-4.28-3.2-9.03-5.74-13.33-8.95-4.76-3.55-9.21-7.62-13.13-12.08-8.31-9.45-12.23-20.52-15.91-32.34-6.34-20.35-7.23-41.05-8.85-62.15-.75-9.72-1.35-19.74-3.58-29.26-1.77-7.57-4.95-14.84-7.41-22.2-3.57-10.68-6.5-21.64-7.69-32.86-1.13-10.54-.47-21.19,.33-31.73,.75-9.96,1.59-20.12,3.93-29.86,1.15-4.77,3.21-9.2,5.01-13.75,2.35-5.92,3.89-12.08,5.51-18.24,2.8-10.64,5.78-21.37,5.25-32.48-.44-9.2-3.08-18.07-4.49-27.14-1.95-12.64-.96-25.57-1.78-38.31-.76-11.87-2.07-23.85-3.94-35.6-.72-4.52-1.98-8.78-4.88-12.38-.58-.71-1.97-.52-2.36,.3-2.26,4.83-2.14,10.4-3.18,15.55-1.47,7.26-3.44,14.4-4.31,21.77-.92,7.81-.63,15.65-1.7,23.45-.93,6.84-.01,13.77-.84,20.6-1.83,15-6.49,29.29-10.36,43.84-1.56,5.88-2.47,11.91-4.4,17.69-1.98,5.93-4.03,11.76-5.09,17.94-2.43,14.11-1.48,28.5-1.03,42.73,.23,7.22,.19,14.31-.69,21.49-.9,7.35-2.22,14.68-2.37,22.09-.25,12.29,3.44,24.3,4.33,36.51,.48,6.68,.12,13.49-.11,20.18-.26,7.74-.76,15.49-1.91,23.15-1.1,7.3-2.6,14.93-5.56,21.73-2.92,6.7-7.74,12.46-12.44,17.98-4.1,4.81-8.3,9.49-11.55,14.94s-5.79,11.63-8.18,17.67-4.45,13.04-8.79,18.12c-3.74,4.37-9.17,7-14.36,9.25-7.09,3.06-13.11,1.29-20.32-.1-5.28-1.02-10.33-1.67-12.28-7.55-2.14-6.43-4.9-11.41-9.25-16.65-4.74-5.71-6.62-13.34-8.1-20.47-1.39-6.69-2.34-13.49-4.43-20.01s-5.41-12.22-8.9-17.96c-3.96-6.51-7.6-12.98-9.79-20.33s-3.34-14.98-5.67-22.29c-2.17-6.77-5.52-13.07-8.5-19.51-3.25-7.01-5.36-14.24-7.42-21.66-3.21-11.54-7.57-23.97-16.89-32.11-3.27-2.86-7.11-3.65-11.31-4.51-5.81-1.18-11.69-1.83-17.58-2.49-7.06-.79-14.18-1.79-21.28-.95-6.38,.75-11.81,4.15-18.08,5.28-3.82,.69-7.83,.46-11.56-.61s-5.79-3.29-8.5-5.96c-1.98-1.95-4.25-3-6.6-4.41-2.88-1.73-5.17-4.16-7.29-6.74-3.44-4.18-6.34-8.49-9.16-13.1s-5.6-9.11-9.49-12.67c-3.15-2.89-7.67-5.42-12.08-4.2-1.7,.47-4.56,1.84-5.19,3.62-.8,2.25,.35,5.98,1.03,8.12,2.09,6.69,6.22,12.59,6.62,19.75,.19,3.35-.1,6.7,.48,10.03,.65,3.71,2.47,7.1,2.98,10.85s-.15,7.14-.31,10.71,.31,6.66,1.04,9.97c1.8,8.22,2.56,15.51,.85,23.85-1.54,7.5-4.2,14.69-6.25,22.06-1.86,6.68-1.86,13.29-.78,20.11,1.13,7.15,3.21,14.16,3.82,21.39,.51,6.02,.17,12.2-.4,18.21-1.13,11.87-3.9,25.21-12.17,34.31-3.7,4.06-8.93,6.46-12.34,10.77-1.42,1.8-2.11,4.06-3.77,5.65-2.14,2.05-4.94,3.46-7.41,5.06-1.84,1.18-3.79,2.4-5.32,3.98-2.05,2.11-3.56,4.63-5.74,6.66-4.97,4.63-11.69,7.82-18.6,6.65-10.93-1.84-18.33-12.66-23.11-21.76-6.25-11.91-9.93-25.15-15.16-37.52-5.89-13.94-13.93-26.8-19.68-40.78-11.66-28.34-16.39-59.02-22.35-88.9-1.64-8.21-3.6-16.38-4.24-24.75-.61-7.91,.6-15.2,1.83-22.96,.99-6.26,1.42-12.79-.68-18.87s-6.72-9.99-11.56-13.84c-2.85-2.27-9.41-7.31-13.29-4.46-2.97,2.18-2.65,8.49-2.66,11.61-.01,5.1,.96,11.21-1.76,15.8-3.06,5.17-8.88,8.72-13.51,12.33-2.16,1.69-4.32,4.32-7.08,4.85-2.92,.56-6-.44-8.83-1.09-2.39-.55-4.85-1.13-7.32-1.11-2.06,.02-3.79,.57-5.84,.14-4.49-.94-8.76-2.96-13.1-4.4-2.42-.81-6.56-2.54-9.04-.99s-2.47,5.48-2.67,7.91c-.37,4.49-.17,9-.32,13.5-.23,6.48-.13,13.27,1.34,19.65,.83,3.58,3.33,6.9,5.12,10.05,2.77,4.88,5.84,9.82,7.83,15.09,1.5,3.96,2.95,7.85,4.91,11.62,1.53,2.95,3.66,7.88,6.9,9.43s5.36-2.03,6.83-4.28c3.48-5.33,8.34-9.14,12.14-14.19s6.17-10.35,8.95-15.7c1.84-3.53,4.25-6.67,6.77-9.75,2.81-3.43,5.81-7.17,9.43-9.79,4.56-3.31,8.12,2.17,9.94,5.99,2.72,5.71,3.85,11.78,3.7,18.09-.17,7.27-1.06,14.36-.14,21.63,1.78,14.11,6.58,27.64,10.9,41.12,4.71,14.67,10.02,29.06,15.19,43.57,2.7,7.58,5.24,15.23,7.24,23.03,1.75,6.8,2.93,13.74,4.95,20.47,2.24,7.43,5.15,14.72,7.67,22.07,2.18,6.36,4.63,12.51,8.06,18.31s7.67,11.44,11.54,17.14c4.16,6.14,7.71,12.61,11.13,19.19,4.91,9.45,9.86,23.06,20.76,27.15,4.78,1.79,9.46,.98,14.28-.13,5.27-1.22,10.64-1.96,15.94-3.03,4.19-.85,8.86-1.71,12.52-4.07s3.44-5.6,3.89-9.63c.82-7.44,1.98-14.88,2.22-22.37,.21-6.54-1.26-13.39,.1-19.86,2.28-10.9,15.48-11.88,18.54-22.06,.81-2.68,.77-5.5,1.63-8.17,1.07-3.32,2.89-6.33,4.32-9.5,2.84-6.32,2.24-12.35,2.03-19.13-.24-7.6-.73-15.62,.72-23.13,1.36-7.03,4.5-13.58,5.69-20.66s.68-15.01,.52-22.38-.39-15.45,.26-23.15c.61-7.25,2.83-14.26,2.96-21.54s-1.13-14.94,.16-22.31c.57-3.26,1.61-6.9,3.61-9.6,1.63-2.19,3.05-1.94,5.23-.71,4.13,2.33,8.01,5.02,12.28,7.14,2.94,1.46,6.24,.73,9.42,.77,5.04,.06,10.08,.77,14.98,1.95,5.25,1.27,10.69,3.08,15,6.44,5.51,4.29,5.21,9.78,4.86,16.17-.25,4.65,.18,9.09,3.54,12.59,2.48,2.59,5.58,4.68,8.43,6.83,9.06,6.82,18.38,13.66,25.72,22.39,4.18,4.97,6.95,10.79,10.27,16.32,3.18,5.28,7.07,9.77,10.88,14.58,4.82,6.1,8.21,13.16,12.28,19.75s8.4,12.28,12.47,18.5c8.48,12.98,16.23,26.5,21.77,41.01,2.51,6.59,6.21,12.16,5.96,19.41-.16,4.62,1.36,8.8,4.02,12.54,5.67,7.98,14.82,13.26,23.6,17.15,7.25,3.21,16.22,7.07,24.32,6.93,5.83-.1,10.61-3.5,14.11-7.94,9.96-12.65,12.99-30.82,16.19-46.15s5.58-30.83,12.66-45.13c4.55-9.2,9.23-18.45,16.01-26.21,5.03-5.75,6.69-12.19,6.96-19.64,.48-13.25-.18-26.51,.47-39.76,.34-7.01,.72-14.01,1.03-21.02,.19-4.34-.45-10.64,1.48-14.67h-2.59c4.31,7.52,3.91,16.78,8.37,24.15,1.97,3.27,4.51,6.16,6.25,9.58,2.23,4.38,2.63,9.26,3.18,14.07,.9,7.88,1.24,15.28,.97,23.21-.28,8.34,.97,16.54,.73,24.87-.16,5.68-.78,10.95-.27,16.6,.73,7.97-.81,15.88,.47,23.85,.68,4.24,1.84,8.42,4,12.16s4.82,6.68,7.23,10.01,4.24,6.69,7.48,9.23c3.43,2.69,7.46,4.49,11.38,6.34,4.75,2.24,9.39,4.58,13.77,7.49,3.28,2.18,6.51,4.42,9.97,6.32,4.24,2.32,8.24,4.49,12.12,7.43s7.33,6.25,9.99,10.64c2.05,3.38,3.8,7.12,6.85,9.75,3.28,2.82,8.07,4.45,11.98,6.16,3.68,1.61,8.14,4.26,11.87,1.7,6.36-4.35,10.7-11.47,17.37-15.46,3.19-1.91,7.53-1.19,11.09-1.4,1.86-.11,3.73-.32,5.55-.72,2.63-.58,4.93-2.03,7.48-2.68,3.51-.89,7.69,.15,11.19,.7,4.66,.73,9.47,1.75,14.21,1.75s2.19-5.88,1.27-8.76c-1.96-6.1-4.28-12.13-6.79-18.03-2.21-5.19-3.3-10.69-4.75-16.14-1.81-6.82-5.12-12.25-9.58-17.62-1.24-1.49-3.35,.65-2.12,2.12Z"/></svg>